<svg xmlns="http://www.w3.org/2000/svg" viewBox="0 0 256 256" fill="none">
  <defs>
    <linearGradient id="lettersBg" x1="28" y1="24" x2="226" y2="232" gradientUnits="userSpaceOnUse">
      <stop offset="0" stop-color="#d2c5ff" />
      <stop offset="1" stop-color="#b2e6ff" />
    </linearGradient>
    <linearGradient id="tile" x1="64" y1="52" x2="182" y2="186" gradientUnits="userSpaceOnUse">
      <stop offset="0" stop-color="#fff8df" />
      <stop offset="1" stop-color="#ffe3ba" />
    </linearGradient>
  </defs>

  <rect x="20" y="20" width="216" height="216" rx="64" fill="url(#lettersBg)" />
  <rect x="62" y="54" width="132" height="148" rx="26" fill="url(#tile)" />
  <rect x="62" y="54" width="132" height="148" rx="26" stroke="#f2cfa3" stroke-width="6" />

  <path d="M96 158C112 124 132 106 156 104" stroke="#6d4ec8" stroke-width="16" stroke-linecap="round" stroke-linejoin="round" />
  <path d="M124 136C132 148 140 156 152 160" stroke="#6d4ec8" stroke-width="14" stroke-linecap="round" stroke-linejoin="round" />
  <circle cx="114" cy="106" r="8" fill="#6d4ec8" />

  <path d="M42 178C58 164 78 158 96 160" stroke="#69b3e7" stroke-width="10" stroke-linecap="round" />
  <path d="M48 146C64 132 82 126 100 128" stroke="#69b3e7" stroke-width="8" stroke-linecap="round" opacity="0.8" />

  <circle cx="198" cy="184" r="20" fill="#ffcb78" />
  <path d="M189 190L203 176" stroke="#c58035" stroke-width="7" stroke-linecap="round" />
  <circle cx="186" cy="193" r="4" fill="#c58035" />
</svg>
