<svg xmlns="http://www.w3.org/2000/svg" viewBox="0 0 256 256" fill="none">
  <defs>
    <linearGradient id="numbersBg" x1="36" y1="28" x2="220" y2="232" gradientUnits="userSpaceOnUse">
      <stop offset="0" stop-color="#b7e5ff" />
      <stop offset="1" stop-color="#f8dc9d" />
    </linearGradient>
    <linearGradient id="numbersBadge" x1="86" y1="60" x2="178" y2="170" gradientUnits="userSpaceOnUse">
      <stop offset="0" stop-color="#ffd86f" />
      <stop offset="1" stop-color="#f2a74d" />
    </linearGradient>
  </defs>

  <rect x="20" y="20" width="216" height="216" rx="64" fill="url(#numbersBg)" />
  <circle cx="128" cy="116" r="64" fill="url(#numbersBadge)" />
  <circle cx="102" cy="98" r="10" fill="#fff4d8" />
  <circle cx="154" cy="98" r="10" fill="#fff4d8" />
  <circle cx="102" cy="132" r="10" fill="#fff4d8" />
  <circle cx="154" cy="132" r="10" fill="#fff4d8" />
  <circle cx="128" cy="116" r="10" fill="#fff4d8" />

  <rect x="58" y="168" width="140" height="36" rx="18" fill="#66b6f0" />
  <rect x="74" y="182" width="108" height="8" rx="4" fill="#3f86bf" />
  <circle cx="84" cy="178" r="8" fill="#ff8fb3" />
  <circle cx="108" cy="178" r="8" fill="#82d59a" />
  <circle cx="132" cy="178" r="8" fill="#ffd467" />
  <circle cx="156" cy="178" r="8" fill="#9ca3ff" />
  <circle cx="180" cy="178" r="8" fill="#ff9a70" />

  <path d="M44 74C58 62 76 58 92 60" stroke="#ffffff" stroke-width="8" stroke-linecap="round" opacity="0.7" />
  <path d="M168 62C184 58 200 62 212 74" stroke="#ffffff" stroke-width="8" stroke-linecap="round" opacity="0.7" />
</svg>
